HIERARCHY
ROOT ui
{
	 OFFSET 0 0 0
	 CHANNELS 3 XPosition YPosition Z Position
	 EndSite
	 {
	 OFFSET 0 -1 0
	 }
}
ROOT li
{
	 OFFSET 0 0 0
	 CHANNELS 3 XPosition YPosition Z Position
	 EndSite
	 {
	 OFFSET 0 -1 0
	 }
}
ROOT ul
{
	 OFFSET 0 0 0
	 CHANNELS 3 XPosition YPosition Z Position
	 EndSite
	 {
	 OFFSET 0 -1 0
	 }
}
ROOT ll
{
	 OFFSET 0 0 0
	 CHANNELS 3 XPosition YPosition Z Position
	 EndSite
	 {
	 OFFSET 0 -1 0
	 }
}
ROOT tt
{
	 OFFSET 0 0 0
	 CHANNELS 3 XPosition YPosition Z Position
	 EndSite
	 {
	 OFFSET 0 -1 0
	 }
}
ROOT tb
{
	 OFFSET 0 0 0
	 CHANNELS 3 XPosition YPosition Z Position
	 EndSite
	 {
	 OFFSET 0 -1 0
	 }
}
ROOT td
{
	 OFFSET 0 0 0
	 CHANNELS 3 XPosition YPosition Z Position
	 EndSite
	 {
	 OFFSET 0 -1 0
	 }
}
ROOT v
{
	 OFFSET 0 0 0
	 CHANNELS 3 XPosition YPosition Z Position
	 EndSite
	 {
	 OFFSET 0 -1 0
	 }
}
ROOT bn
{
	 OFFSET 0 0 0
	 CHANNELS 3 XPosition YPosition Z Position
	 EndSite
	 {
	 OFFSET 0 -1 0
	 }
}
MOTION
Frames: 18
Frame Time: 0.002
7.501720190048218E-4	4.589479863643646E-4	0		0.466370361328125	-2.433406005859375	0		-1.175970458984375	-0.03447679901123047	0		-0.8859641723632813	-2.5665087890625	0		1.08687353515625	-0.7412391357421875	0		2.790455078125	-0.16376998901367187	0		4.44314404296875	0.050476207733154296	0		5.5463818359375	0.17961512756347656	0		-0.2723370361328125	5.85965380859375	0		
-0.0025690178871154786	0.0010120309591293336	0		0.4732569274902344	-2.426994384765625	0		-1.1643385009765626	-0.037218955993652346	0		-0.8051620483398437	-2.566353515625	0		1.0967315673828124	-0.7318482055664063	0		2.8224296875	-0.14565864562988282	0		4.45686865234375	0.053955154418945314	0		5.55800390625	0.17717707824707032	0		-0.23966741943359374	5.87561083984375	0		
0.011177500724792481	0.0062989740371704106	0		0.4921241149902344	-2.42176416015625	0		-1.094629638671875	-0.034891956329345705	0		-0.8413612670898437	-2.565300537109375	0		1.1373179931640625	-0.738939697265625	0		2.784948486328125	-0.154406982421875	0		4.44955078125	0.05580375671386719	0		5.55379248046875	0.18603146362304687	0		-0.2554040069580078	5.8693544921875	0		
-0.012198760032653808	0.00619582986831665	0		0.4996660766601563	-2.43533740234375	0		-1.097054443359375	-0.03839152145385742	0		-0.805686767578125	-2.571396240234375	0		1.1338829345703125	-0.745302490234375	0		2.798495849609375	-0.15995396423339844	0		4.44807275390625	0.04958750534057617	0		5.551291015625	0.17889094543457032	0		-0.25409967041015624	5.86883544921875	0		
-0.017721887588500976	-1.7971900105476378E-4	0		0.49152227783203123	-2.4266376953125	0		-1.1694544677734375	-0.036757774353027343	0		-0.8070156860351563	-2.57488134765625	0		1.1354976806640624	-0.7457255859375	0		2.78815869140625	-0.15509097290039062	0		4.454513671875	0.04127406692504883	0		5.552853515625	0.17871926879882813	0		-0.4003544921875	5.838689453125	0		
-0.01621415901184082	-6.479859948158264E-4	0		0.5030285034179688	-2.436234130859375	0		-1.093969970703125	-0.03947345733642578	0		-0.8023085327148437	-2.5724443359375	0		1.095086669921875	-0.74345654296875	0		2.80681689453125	-0.14666574096679688	0		4.443259765625	0.05627509307861328	0		5.5643173828125	0.17642066955566407	0		-0.25073202514648435	5.86583544921875	0		
-0.007689290046691895	0.004794651985168457	0		0.4817205505371094	-2.429283935546875	0		-1.16246484375	-0.03487313461303711	0		-0.87058642578125	-2.563826904296875	0		1.1385250244140626	-0.7465013427734375	0		2.807113525390625	-0.15592317199707031	0		4.45566943359375	0.054925235748291015	0		5.559880859375	0.18540740966796876	0		-0.2506250305175781	5.8673916015625	0		
-0.006345706939697266	0.004374427795410156	0		0.5081319885253907	-2.435068603515625	0		-1.087143798828125	-0.03753494262695312	0		-0.7971884155273438	-2.5714384765625	0		1.0979517822265625	-0.7441868286132812	0		2.82444921875	-0.15742282104492186	0		4.45701025390625	0.054780162811279294	0		5.56121337890625	0.18533041381835938	0		-0.24964286804199218	5.86695654296875	0		
-0.0050954360961914065	0.0039802160263061525	0		0.4737113037109375	-2.423865234375	0		-1.0858909912109376	-0.037996170043945315	0		-0.80663525390625	-2.56270947265625	0		1.1381649169921875	-0.7501264038085937	0		2.809727294921875	-0.15638954162597657	0		4.45825732421875	0.054662708282470704	0		5.56834130859375	0.17818775939941406	0		-0.248756103515625	5.866546875	0		
-0.011036735534667969	-0.0022770841121673583	0		0.5327225341796875	-2.44311181640625	0		-1.088782958984375	-0.0413671875	0		-0.80938818359375	-2.567063232421875	0		1.1393631591796876	-0.7504241943359375	0		2.79489111328125	-0.15633375549316406	0		4.46427978515625	0.04649097442626953	0		5.55948388671875	0.1783185119628906	0		-0.24894772338867188	5.8671796875	0		
-0.0069392619132995605	3.3333998918533324E-4	0		0.45708392333984377	-2.43221923828125	0		-1.1576585693359376	-0.03667941284179688	0		-0.7952962036132812	-2.5746552734375	0		1.1404583740234375	-0.7506983032226563	0		2.800841064453125	-0.16358700561523437	0		4.465328125	0.04641400909423828	0		5.5712099609375	0.15813693237304688	0		-0.3654493713378906	5.854654296875	0		
-0.0019449160099029542	0.0029540989398956297	0		0.5171919555664063	-2.43142919921875	0		-1.14486572265625	-0.04724602508544922	0		-0.8600092163085937	-2.561989013671875	0		1.139996826171875	-0.779931640625	0		2.823122802734375	-0.14307635498046875	0		4.4703662109375	0.05228435897827149	0		5.5714296875	0.17614553833007812	0		-0.22954885864257812	5.87121240234375	0		
0.001962386965751648	0.006615538120269776	0		0.4911964111328125	-2.429275146484375	0		-1.08188525390625	-0.03955984115600586	0		-0.7891650390625	-2.571410400390625	0		1.14537890625	-0.7482306518554688	0		2.813759765625	-0.15706629943847655	0		4.46711669921875	0.04628458023071289	0		5.56640673828125	0.18523135375976563	0		-0.24609474182128907	5.865173828125	0		
-0.004401144981384278	-5.431420207023621E-4	0		0.5050794982910156	-2.427722412109375	0		-1.1551148681640624	-0.03773090362548828	0		-0.8731090087890625	-2.5583994140625	0		1.101146728515625	-0.748750244140625	0		2.798512939453125	-0.15695988464355468	0		4.4629833984375	0.05429415893554688	0		5.56303515625	0.1782767333984375	0		-0.25978311157226563	5.85411279296875	0		
-0.006802745819091797	-0.003743283987045288	0		0.503783447265625	-2.429919189453125	0		-1.0845391845703125	-0.04310126495361328	0		-0.8024860229492188	-2.566759033203125	0		1.1437830810546874	-0.7516044311523438	0		2.799163330078125	-0.15710252380371093	0		4.460533203125	0.048260459899902346	0		5.5636728515625	0.17823687744140626	0		-0.3936493530273438	5.8359287109375	0		
-0.006255945205688476	-0.003971029996871948	0		0.4882916259765625	-2.43688525390625	0		-1.15392138671875	-0.0382801399230957	0		-0.8608764038085938	-2.567098876953125	0		1.102386474609375	-0.7491528930664062	0		2.813897705078125	-0.14546961975097655	0		4.469046875	0.04603366470336914	0		5.56832177734375	0.185101318359375	0		-0.39228024291992186	5.8346748046875	0		
0.001288282036781311	0.001710209012031555	0		0.49186349487304687	-2.432133544921875	0		-1.0794923095703124	-0.04065000152587891	0		-0.7864492797851562	-2.57246337890625	0		1.1413238525390625	-0.7839403686523437	0		2.803246337890625	-0.15246028137207032	0		4.46871435546875	0.05991546630859375	0		5.5746318359375	0.17589727783203124	0		-0.36360964965820314	5.85502392578125	0		
0.004712433815002442	0.00546958589553833	0		0.5212406616210937	-2.4327705078125	0		-1.150043701171875	-0.03475948333740234	0		-0.8328773803710937	-2.55994091796875	0		1.1805955810546875	-0.7907256469726562	0		2.823684814453125	-0.14794235229492186	0		4.4649853515625	0.05381626129150391	0		5.5750244140625	0.17774359130859374	0		-0.24413404846191405	5.863994140625	0		
